<svg width="156" height="28" viewBox="0 0 156 28" fill="none" xmlns="http://www.w3.org/2000/svg">
<g clip-path="url(#clip0_18_858)">
<path d="M66.5229 11.3646V19.3191H64.3686V11.3646H61.3972V9.31915H69.5314V11.3646H66.5229ZM56.3829 19.4707C53.4857 19.4707 51.3686 17.1979 51.3686 14.357V14.3191C51.3686 11.4782 53.4486 9.16763 56.4571 9.16763C58.3143 9.16763 59.3914 9.77369 60.32 10.6828L58.9457 12.3116C58.2029 11.5919 57.4229 11.1752 56.4571 11.1752C54.7857 11.1752 53.5971 12.5767 53.5971 14.2813V14.3191C53.5971 16.0237 54.7857 17.4631 56.4571 17.4631C57.5714 17.4631 58.24 17.0085 59.02 16.2888L60.3943 17.6904C59.3914 18.7888 58.2771 19.4707 56.3829 19.4707ZM45.5 19.4707C42.9 19.4707 41.2657 17.9555 41.2657 15.0388V9.31915H43.42V14.9631C43.42 16.5919 44.2371 17.4252 45.5371 17.4252C46.8371 17.4252 47.6543 16.6298 47.6543 15.0388V9.31915H49.8086V14.9631C49.8086 17.9934 48.1371 19.4707 45.5 19.4707ZM34.5057 19.3191H30.7171V9.31915H34.5057C37.5886 9.31915 39.7057 11.4782 39.7057 14.2813V14.3191C39.7057 17.1222 37.5886 19.3191 34.5057 19.3191ZM37.4771 14.3191C37.4771 12.5388 36.2886 11.3267 34.5057 11.3267H32.8714V17.3116H34.5057C36.2886 17.3116 37.4771 16.0995 37.4771 14.357V14.3191ZM23.8829 19.4707C20.8743 19.4707 18.6829 17.1979 18.6829 14.357V14.3191C18.6829 11.4782 20.9114 9.16763 23.92 9.16763C26.9286 9.16763 29.0829 11.4404 29.0829 14.2813V14.3191C29.0829 17.1601 26.8914 19.4707 23.8829 19.4707ZM26.8543 14.3191C26.8543 12.6146 25.6286 11.1752 23.8829 11.1752C22.1371 11.1752 20.9486 12.5767 20.9486 14.2813V14.3191C20.9486 16.0237 22.1743 17.4631 23.92 17.4631C25.6286 17.4631 26.8543 16.0616 26.8543 14.357V14.3191ZM15.1543 19.3191L13.0743 16.0995H11.4029V19.3191H9.24857V9.31915H13.7057C16.0086 9.31915 17.3829 10.5691 17.3829 12.6146V12.6525C17.3829 14.2434 16.5286 15.2661 15.3029 15.7585L17.68 19.3191H15.1543ZM15.2286 12.7282C15.2286 11.7813 14.56 11.3267 13.52 11.3267H11.4029V14.1676H13.5571C14.5971 14.1676 15.2286 13.5995 15.2286 12.7661V12.7282ZM3.78857 16.3267H2.15429V19.3191H0V9.31915H4.01143C6.31429 9.31915 7.72571 10.7585 7.72571 12.7661V12.804C7.72571 15.1146 5.98 16.3267 3.78857 16.3267ZM5.57143 12.804C5.57143 11.857 4.90286 11.3267 3.82571 11.3267H2.15429V14.357H3.86286C4.94 14.357 5.57143 13.7131 5.57143 12.8419V12.804Z" fill="#EDE8DD"/>
<path d="M89.144 9.32512L84.1297 12.2418L78.4097 11.0297C78.4097 11.0297 79.1897 10.3479 80.7868 9.40088C82.4582 8.41603 83.4982 8.22664 83.4982 8.22664C83.4982 8.22664 84.6497 8.18876 86.4325 8.56755C88.2897 8.90846 89.144 9.32512 89.144 9.32512ZM90.6668 13.3782C90.964 15.6509 90.9268 17.0145 90.9268 17.0145C90.9268 17.0145 90.5554 17.4691 88.7725 18.8327C87.2125 20.0069 85.8382 20.6888 85.8382 20.6888L84.6497 12.9236L89.8125 9.96906C89.8125 9.96906 90.3325 11.0297 90.6668 13.3782ZM83.7954 13.0751L84.9468 20.8403C84.9468 20.8403 83.424 20.5751 81.7525 19.8933C79.784 19.0978 78.8554 18.5675 78.8554 18.5675C78.8554 18.5675 78.4468 17.5069 78.1497 15.3478C77.8525 13.416 77.9639 11.8251 77.9639 11.8251L83.7954 13.0751Z" fill="#EDE8DD"/>
<path d="M96.4608 14.3611C96.4608 17.1642 95.5322 19.7778 93.9722 21.8611L95.8293 29.3233L89.0693 25.6869C87.6579 26.3308 86.0608 26.6717 84.3893 26.6717C77.7408 26.6717 72.3179 21.1414 72.3179 14.3611C72.3179 7.54296 77.7408 2.05054 84.3893 2.05054C91.0379 2.05054 96.4608 7.54296 96.4608 14.3611ZM89.1436 23.1869L92.4865 25.0051L91.5579 21.293C91.5579 21.293 91.595 21.2551 91.6322 21.2172C93.2665 19.4369 94.2693 17.0127 94.2693 14.3611C94.2693 8.79296 89.8493 4.28539 84.3893 4.28539C78.9293 4.28539 74.5093 8.79296 74.5093 14.3611C74.5093 19.9293 78.9293 24.4369 84.3893 24.4369C86.0979 24.4369 87.7322 23.9824 89.1065 23.2248C89.1436 23.1869 89.1436 23.1869 89.1436 23.1869Z" fill="#EDE8DD"/>
<path d="M152.507 19.4013H150.612L148.421 12.8861L146.192 19.4013H144.335L140.992 9.36341H143.295L145.338 16.1058L147.53 9.32553H149.387L151.578 16.1058L153.584 9.36341H155.85L152.507 19.4013ZM135.495 15.3104V17.3937H140.807V19.3255H133.378V9.36341H139.098L139.73 11.3331H135.495V13.3407H140.101V15.3104H135.495ZM128.847 19.3255V9.36341H131.001V19.3255H128.847ZM123.387 19.4013H121.492L117.555 9.36341H119.895L122.458 16.4089L125.021 9.36341H127.361L123.387 19.4013ZM112.132 15.3104V17.3937H117.444V19.3255H110.015V9.36341H115.735L116.367 11.3331H112.132V13.3407H116.738V15.3104H112.132ZM105.818 19.3255L103.738 16.1437H102.03V19.3255H99.8752V9.36341H104.37C106.672 9.36341 108.047 10.6134 108.047 12.6589V12.6967C108.047 14.2877 107.192 15.3104 105.967 15.7649L108.344 19.3255H105.818ZM105.892 12.7725C105.892 11.8255 105.224 11.3331 104.184 11.3331H102.03V14.2119H104.221C105.261 14.2119 105.892 13.6437 105.892 12.8104V12.7725Z" fill="#EDE8DD"/>
<path d="M123.651 26.7056C122.462 26.7056 121.757 26.0237 121.757 24.7359V22.198H122.722V24.698C122.722 25.4177 123.057 25.7965 123.651 25.7965C124.245 25.7965 124.579 25.4556 124.579 24.7359V22.198H125.545V24.698C125.545 26.0616 124.802 26.7056 123.651 26.7056ZM120.308 26.6298L119.899 25.6449H118.042L117.671 26.6298H116.668L118.562 22.1601H119.454L121.311 26.6298H120.308ZM118.971 23.3343L118.414 24.7737H119.565L118.971 23.3343ZM115.145 26.6298V25.6071H116.148V26.6298H115.145ZM113.288 26.6298V23.751L112.062 25.6449H112.025L110.799 23.751V26.6298H109.871V22.198H110.911L112.062 24.0919L113.177 22.198H114.217V26.6298H113.288ZM106.677 26.7056C105.339 26.7056 104.374 25.6828 104.374 24.4328C104.374 23.1449 105.339 22.1222 106.714 22.1222C108.051 22.1222 109.017 23.145 109.017 24.395V24.4328C109.017 25.6828 108.051 26.7056 106.677 26.7056ZM108.014 24.4328C108.014 23.6374 107.457 23.0313 106.677 23.0313C105.934 23.0313 105.377 23.6374 105.377 24.395V24.4328C105.377 25.1904 105.934 25.7965 106.714 25.7965C107.457 25.7965 108.014 25.1904 108.014 24.4328ZM102.145 26.7056C100.845 26.7056 99.9166 25.7207 99.9166 24.4328C99.9166 23.1449 100.845 22.1222 102.182 22.1222C102.999 22.1222 103.482 22.3874 103.891 22.804L103.297 23.5237C102.962 23.2207 102.628 23.0313 102.182 23.0313C101.439 23.0313 100.919 23.6374 100.919 24.395V24.4328C100.919 25.1904 101.439 25.7965 102.182 25.7965C102.665 25.7965 102.962 25.6071 103.334 25.304L103.928 25.9101C103.482 26.4025 102.999 26.7056 102.145 26.7056ZM98.4309 26.6298V25.6071H99.4337V26.6298H98.4309Z" fill="#EDE8DD"/>
</g>
<defs>
<clipPath id="clip0_18_858">
<rect width="156" height="27.2727" fill="white" transform="translate(0 0.727264)"/>
</clipPath>
</defs>
</svg>
