<svg width="16" height="16" viewBox="0 0 16 16" fill="none" xmlns="http://www.w3.org/2000/svg">
<path fill-rule="evenodd" clip-rule="evenodd" d="M7.99992 1.33301C8.36811 1.33301 8.66659 1.63148 8.66659 1.99967V8.3902L10.8618 6.19494C11.1222 5.93459 11.5443 5.93459 11.8047 6.19494C12.065 6.45529 12.065 6.8774 11.8047 7.13775L8.47132 10.4711C8.21097 10.7314 7.78886 10.7314 7.52851 10.4711L4.19518 7.13775C3.93483 6.8774 3.93483 6.45529 4.19518 6.19494C4.45553 5.93459 4.87764 5.93459 5.13799 6.19494L7.33325 8.3902V1.99967C7.33325 1.63148 7.63173 1.33301 7.99992 1.33301ZM1.99992 9.33301C2.36811 9.33301 2.66659 9.63148 2.66659 9.99967V12.6663C2.66659 12.8432 2.73682 13.0127 2.86185 13.1377C2.98687 13.2628 3.15644 13.333 3.33325 13.333H12.6666C12.8434 13.333 13.013 13.2628 13.138 13.1377C13.263 13.0127 13.3333 12.8432 13.3333 12.6663V9.99967C13.3333 9.63148 13.6317 9.33301 13.9999 9.33301C14.3681 9.33301 14.6666 9.63148 14.6666 9.99967V12.6663C14.6666 13.1968 14.4559 13.7055 14.0808 14.0806C13.7057 14.4556 13.197 14.6663 12.6666 14.6663H3.33325C2.80282 14.6663 2.29411 14.4556 1.91904 14.0806C1.54397 13.7055 1.33325 13.1968 1.33325 12.6663V9.99967C1.33325 9.63148 1.63173 9.33301 1.99992 9.33301Z" fill="currentColor"/>
</svg>
