<svg width="16" height="17" viewBox="0 0 16 17" fill="none" xmlns="http://www.w3.org/2000/svg">
<g clip-path="url(#clip0_193_4219)">
<path d="M7.99992 15.1667C11.6818 15.1667 14.6666 12.1819 14.6666 8.50004C14.6666 4.81814 11.6818 1.83337 7.99992 1.83337C4.31802 1.83337 1.33325 4.81814 1.33325 8.50004C1.33325 12.1819 4.31802 15.1667 7.99992 15.1667Z" stroke="currentColor" stroke-width="2" stroke-linecap="round" stroke-linejoin="round"/>
<path d="M1.33325 8.5H14.6666" stroke="currentColor" stroke-width="2" stroke-linecap="round" stroke-linejoin="round"/>
<path d="M7.99992 1.83337C9.66744 3.65894 10.6151 6.02806 10.6666 8.50004C10.6151 10.972 9.66744 13.3411 7.99992 15.1667C6.3324 13.3411 5.38475 10.972 5.33325 8.50004C5.38475 6.02806 6.3324 3.65894 7.99992 1.83337V1.83337Z" stroke="currentColor" stroke-width="2" stroke-linecap="round" stroke-linejoin="round"/>
</g>
<defs>
<clipPath id="clip0_193_4219">
<rect width="16" height="16" fill="white" transform="translate(0 0.5)"/>
</clipPath>
</defs>
</svg>
