<svg viewBox="0 0 152 48" fill="none" xmlns="http://www.w3.org/2000/svg">
<path d="M122.633 47.8189C121.672 47.8189 120.814 47.6562 120.06 47.3307C119.305 47.0053 118.713 46.5689 118.284 46.0216C117.855 45.4743 117.611 44.8752 117.552 44.2243L120.237 43.5365H120.326C120.429 44.143 120.696 44.6015 121.125 44.9122C121.554 45.2228 122.057 45.3781 122.633 45.3781C123.136 45.3781 123.536 45.2746 123.832 45.0675C124.127 44.8456 124.275 44.5498 124.275 44.1799C124.275 43.6474 123.891 43.285 123.122 43.0927L120.991 42.5824C120.104 42.3753 119.364 42.0424 118.773 41.5839C118.196 41.1253 117.907 40.4079 117.907 39.4316C117.907 38.7659 118.1 38.1668 118.484 37.6343C118.869 37.087 119.401 36.658 120.082 36.3473C120.762 36.0219 121.531 35.8592 122.389 35.8592C123.203 35.8592 123.943 35.9923 124.608 36.2586C125.274 36.5249 125.814 36.8947 126.228 37.368C126.657 37.8266 126.931 38.3369 127.049 38.899L124.364 39.6091H124.275C124.187 39.1209 123.965 38.7511 123.61 38.4996C123.27 38.2482 122.863 38.1224 122.389 38.1224C121.931 38.1224 121.568 38.226 121.302 38.4331C121.036 38.6402 120.903 38.8916 120.903 39.1875C120.903 39.439 120.999 39.6461 121.191 39.8088C121.383 39.9567 121.687 40.0824 122.101 40.186L123.832 40.5854C124.556 40.7481 125.163 40.9478 125.651 41.1845C126.139 41.4212 126.531 41.7762 126.827 42.2495C127.138 42.7229 127.293 43.3516 127.293 44.1356C127.293 44.7864 127.093 45.4003 126.694 45.9772C126.295 46.5393 125.74 46.9905 125.03 47.3307C124.32 47.6562 123.521 47.8189 122.633 47.8189Z" fill="#EDE8DD"/>
<path d="M105.406 41.8279C105.406 40.6889 105.65 39.6682 106.138 38.7659C106.626 37.8488 107.299 37.1387 108.157 36.6358C109.03 36.1181 110.014 35.8592 111.108 35.8592C112.469 35.8592 113.564 36.1402 114.392 36.7024C115.221 37.2497 115.812 37.9523 116.167 38.8103C116.522 39.6682 116.7 40.5854 116.7 41.5617C116.7 41.7688 116.685 42.0794 116.656 42.4936H108.401C108.505 43.3812 108.816 44.069 109.333 44.5572C109.851 45.0453 110.517 45.2894 111.33 45.2894C112.588 45.2894 113.379 44.7421 113.704 43.6474L116.633 44.4018C116.338 45.4669 115.724 46.3027 114.792 46.9092C113.875 47.5156 112.691 47.8189 111.242 47.8189C110.117 47.8189 109.111 47.5674 108.224 47.0645C107.351 46.5467 106.663 45.8367 106.16 44.9344C105.657 44.0172 105.406 42.9818 105.406 41.8279ZM113.505 40.3635C113.446 39.6978 113.202 39.1579 112.773 38.7437C112.358 38.3147 111.804 38.1002 111.108 38.1002C110.413 38.1002 109.844 38.2999 109.4 38.6993C108.956 39.0839 108.653 39.6387 108.49 40.3635H113.505Z" fill="#EDE8DD"/>
<path d="M86.9453 36.0811H89.963V37.4568C90.318 36.9686 90.7692 36.584 91.3165 36.303C91.8786 36.0071 92.5073 35.8592 93.2025 35.8592C94.0013 35.8592 94.6892 36.0293 95.2661 36.3695C95.8578 36.695 96.3089 37.1683 96.6196 37.7896C96.9894 37.1239 97.4923 36.6358 98.1284 36.3252C98.7645 36.0145 99.4375 35.8592 100.148 35.8592C100.917 35.8592 101.612 36.0293 102.233 36.3695C102.855 36.695 103.335 37.1535 103.676 37.7452C104.031 38.3369 104.208 39.0174 104.208 39.7866V47.597H101.19V40.7185C101.19 39.8753 101.013 39.2836 100.658 38.9434C100.318 38.6032 99.8887 38.4331 99.371 38.4331C98.8089 38.4331 98.3133 38.6624 97.8843 39.1209C97.4553 39.5647 97.1891 40.149 97.0855 40.8738V47.597H94.0679V40.7185C94.0679 39.8753 93.8904 39.2836 93.5353 38.9434C93.1951 38.6032 92.7661 38.4331 92.2484 38.4331C91.6715 38.4331 91.1686 38.6698 90.7396 39.1431C90.3254 39.6165 90.0665 40.2008 89.963 40.896V47.597H86.9453V36.0811Z" fill="#EDE8DD"/>
<path d="M79.7362 47.8189C78.5972 47.8189 77.5765 47.56 76.6742 47.0423C75.7718 46.5245 75.0692 45.8071 74.5662 44.89C74.0633 43.9729 73.8118 42.9522 73.8118 41.8279C73.8118 40.7037 74.0633 39.6904 74.5662 38.7881C75.0692 37.871 75.7718 37.1535 76.6742 36.6358C77.5765 36.1181 78.5972 35.8592 79.7362 35.8592C80.8604 35.8592 81.8737 36.1181 82.7761 36.6358C83.6784 37.1535 84.381 37.871 84.884 38.7881C85.4017 39.6904 85.6606 40.7037 85.6606 41.8279C85.6606 42.9522 85.4017 43.9729 84.884 44.89C84.381 45.7923 83.6784 46.5098 82.7761 47.0423C81.8737 47.56 80.8604 47.8189 79.7362 47.8189ZM79.7362 45.2228C80.5794 45.2228 81.2672 44.9048 81.7998 44.2687C82.3323 43.6326 82.5985 42.819 82.5985 41.8279C82.5985 40.8369 82.3249 40.0233 81.7776 39.3872C81.245 38.7511 80.5646 38.4331 79.7362 38.4331C78.8782 38.4331 78.183 38.7511 77.6505 39.3872C77.1327 40.0233 76.8739 40.8369 76.8739 41.8279C76.8739 42.819 77.1327 43.6326 77.6505 44.2687C78.183 44.9048 78.8782 45.2228 79.7362 45.2228Z" fill="#EDE8DD"/>
<path d="M69.3491 40.6964H62.4928V47.597H59.2976V31.599H62.4928V37.9006H69.3491V31.599H72.5442V47.597H69.3491V40.6964Z" fill="#EDE8DD"/>
<path d="M141.437 17.1651H144.455V18.5186C144.824 18.0304 145.283 17.6458 145.83 17.3648C146.378 17.0837 146.984 16.9432 147.65 16.9432C148.463 16.9432 149.196 17.1133 149.847 17.4535C150.512 17.7789 151.037 18.2523 151.422 18.8736C151.807 19.4949 151.999 20.2197 151.999 21.0481V28.681H148.981V21.8025C148.981 21.0777 148.796 20.5156 148.426 20.1162C148.057 19.7168 147.539 19.5171 146.873 19.5171C146.282 19.5171 145.756 19.7537 145.298 20.2271C144.854 20.7005 144.573 21.2848 144.455 21.98V28.681H141.437V17.1651Z" fill="#EDE8DD"/>
<path d="M128.824 22.9119C128.824 21.7729 129.068 20.7522 129.556 19.8499C130.044 18.9328 130.717 18.2227 131.575 17.7198C132.448 17.202 133.432 16.9432 134.526 16.9432C135.887 16.9432 136.982 17.2242 137.81 17.7863C138.639 18.3337 139.23 19.0363 139.585 19.8943C139.94 20.7522 140.118 21.6694 140.118 22.6457C140.118 22.8528 140.103 23.1634 140.074 23.5776H131.819C131.923 24.4651 132.234 25.153 132.751 25.6411C133.269 26.1293 133.935 26.3734 134.748 26.3734C136.006 26.3734 136.797 25.826 137.123 24.7314L140.051 25.4858C139.756 26.5509 139.142 27.3866 138.21 27.9931C137.293 28.5996 136.109 28.9029 134.66 28.9029C133.535 28.9029 132.529 28.6514 131.642 28.1485C130.769 27.6307 130.081 26.9207 129.578 26.0183C129.075 25.1012 128.824 24.0657 128.824 22.9119ZM136.923 21.4475C136.864 20.7818 136.62 20.2419 136.191 19.8277C135.776 19.3987 135.222 19.1842 134.526 19.1842C133.831 19.1842 133.262 19.3839 132.818 19.7833C132.374 20.1679 132.071 20.7226 131.908 21.4475H136.923Z" fill="#EDE8DD"/>
<path d="M118.631 18.7852L118.054 17.2542V17.1654H121.05L121.072 17.2542L121.56 18.7852L123.624 25.1977L125.643 18.7852L126.109 17.2763L126.153 17.1654H129.171V17.2763L128.594 18.7852L125.022 28.6813H122.226L118.631 18.7852Z" fill="#EDE8DD"/>
<path d="M111.47 28.9029C110.7 28.9029 110.005 28.7549 109.384 28.4591C108.763 28.1632 108.275 27.7639 107.92 27.2609C107.579 26.7432 107.409 26.1663 107.409 25.5302C107.409 24.5095 107.764 23.6959 108.474 23.0894C109.184 22.4682 110.198 22.0688 111.514 21.8913L114.62 21.4697V21.0481C114.62 20.486 114.436 20.0422 114.066 19.7168C113.696 19.3913 113.215 19.2286 112.624 19.2286C111.973 19.2286 111.448 19.3913 111.048 19.7168C110.649 20.0422 110.382 20.486 110.249 21.0481L107.52 20.3824C107.816 19.3913 108.393 18.5703 109.251 17.9195C110.124 17.2686 111.248 16.9432 112.624 16.9432C114.132 16.9432 115.338 17.3426 116.24 18.1414C117.157 18.9254 117.616 19.9904 117.616 21.3365V28.681H114.598V27.4384C113.873 28.4147 112.831 28.9029 111.47 28.9029ZM110.471 25.3971C110.471 25.7669 110.612 26.0775 110.893 26.329C111.189 26.5805 111.566 26.7062 112.024 26.7062C112.646 26.7062 113.171 26.5287 113.6 26.1737C114.044 25.8186 114.376 25.3601 114.598 24.798V23.511L112.024 23.9548C110.989 24.1619 110.471 24.6426 110.471 25.3971Z" fill="#EDE8DD"/>
<path d="M95.2014 12.4612H98.2191V18.5188C98.5889 18.0306 99.0475 17.646 99.5948 17.3649C100.142 17.0839 100.749 16.9434 101.414 16.9434C102.228 16.9434 102.96 17.1135 103.611 17.4537C104.277 17.7791 104.802 18.2525 105.186 18.8738C105.571 19.4951 105.763 20.2199 105.763 21.0483V28.6812H102.746V21.8027C102.746 21.0778 102.561 20.5157 102.191 20.1163C101.821 19.7169 101.303 19.5172 100.638 19.5172C100.046 19.5172 99.5208 19.7539 99.0622 20.2273C98.6185 20.7006 98.3374 21.2849 98.2191 21.9802V28.6812H95.2014V12.4612Z" fill="#EDE8DD"/>
<path d="M86.815 17.1651H89.8327V18.8292C90.1729 18.2375 90.6389 17.7789 91.2305 17.4535C91.8222 17.1133 92.4287 16.9432 93.05 16.9432C93.4198 16.9432 93.6639 16.958 93.7822 16.9876V19.8721C93.3681 19.8129 93.087 19.7833 92.9391 19.7833C92.0811 19.7833 91.4007 20.0274 90.8977 20.5156C90.3948 21.0037 90.0398 21.6102 89.8327 22.335V28.681H86.815V17.1651Z" fill="#EDE8DD"/>
<path d="M81.7498 28.6811V17.1652H84.7674V28.6811H81.7498ZM83.2364 15.8339C82.7335 15.8339 82.3045 15.6564 81.9495 15.3014C81.6093 14.9463 81.4391 14.5174 81.4391 14.0144C81.4391 13.5115 81.6093 13.0825 81.9495 12.7275C82.3045 12.3725 82.7335 12.1949 83.2364 12.1949C83.769 12.1949 84.2127 12.3725 84.5678 12.7275C84.9228 13.0825 85.1003 13.5115 85.1003 14.0144C85.1003 14.5174 84.9228 14.9463 84.5678 15.3014C84.2127 15.6564 83.769 15.8339 83.2364 15.8339Z" fill="#EDE8DD"/>
<path d="M73.891 28.9029C73.1218 28.9029 72.4265 28.7549 71.8052 28.4591C71.184 28.1632 70.6958 27.7639 70.3408 27.2609C70.0006 26.7432 69.8304 26.1663 69.8304 25.5302C69.8304 24.5095 70.1855 23.6959 70.8955 23.0894C71.6055 22.4682 72.6188 22.0688 73.9353 21.8913L77.0418 21.4697V21.0481C77.0418 20.486 76.8569 20.0422 76.487 19.7168C76.1172 19.3913 75.6365 19.2286 75.0448 19.2286C74.3939 19.2286 73.8688 19.3913 73.4694 19.7168C73.07 20.0422 72.8037 20.486 72.6706 21.0481L69.9414 20.3824C70.2372 19.3913 70.8141 18.5703 71.6721 17.9195C72.5449 17.2686 73.6691 16.9432 75.0448 16.9432C76.5536 16.9432 77.7592 17.3426 78.6615 18.1414C79.5787 18.9254 80.0372 19.9904 80.0372 21.3365V28.681H77.0196V27.4384C76.2947 28.4147 75.2519 28.9029 73.891 28.9029ZM72.8925 25.3971C72.8925 25.7669 73.033 26.0775 73.3141 26.329C73.6099 26.5805 73.9871 26.7062 74.4457 26.7062C75.067 26.7062 75.5921 26.5287 76.0211 26.1737C76.4649 25.8186 76.7977 25.3601 77.0196 24.798V23.511L74.4457 23.9548C73.4102 24.1619 72.8925 24.6426 72.8925 25.3971Z" fill="#EDE8DD"/>
<path d="M59.2976 12.683H70.281V15.4788H62.4928V18.8959H68.75V21.6916H62.4928V28.6811H59.2976V12.683Z" fill="#EDE8DD"/>
<path d="M46.2529 0.28772C46.9078 0.28772 47.4382 0.818413 47.4384 1.47327V46.5406C47.4384 47.1956 46.9079 47.7272 46.2529 47.7272H1.18549C0.53059 47.7271 -6.10352e-05 47.1956 -6.10352e-05 46.5406V35.9615C3.11476 35.9615 6.19936 35.3479 9.07709 34.1559C11.9547 32.9639 14.5699 31.2167 16.7724 29.0143C18.9748 26.8118 20.722 24.1966 21.914 21.319C23.1058 18.4415 23.7196 15.3574 23.7197 12.2428H-6.10352e-05V1.47327C0.000109536 0.818488 0.530695 0.287839 1.18549 0.28772H46.2529Z" fill="#EDE8DD"/>
</svg>
