<svg viewBox="0 0 91 137" fill="none" xmlns="http://www.w3.org/2000/svg">
<path d="M62.2895 136.833C61.3557 136.833 60.5226 136.675 59.7899 136.359C59.0573 136.043 58.4827 135.619 58.0661 135.087C57.6495 134.556 57.4125 133.974 57.355 133.342L59.9623 132.674H60.0485C60.1491 133.263 60.4076 133.708 60.8242 134.01C61.2408 134.312 61.7292 134.463 62.2895 134.463C62.7779 134.463 63.1658 134.362 63.4531 134.161C63.7404 133.945 63.884 133.658 63.884 133.299C63.884 132.782 63.5105 132.43 62.7635 132.243L60.6949 131.748C59.833 131.546 59.1148 131.223 58.5402 130.778C57.9799 130.333 57.6998 129.636 57.6998 128.688C57.6998 128.041 57.8865 127.459 58.26 126.942C58.6335 126.411 59.1507 125.994 59.8115 125.693C60.4723 125.377 61.2193 125.219 62.0525 125.219C62.8426 125.219 63.5608 125.348 64.2072 125.606C64.8537 125.865 65.378 126.224 65.7802 126.684C66.1968 127.129 66.4626 127.625 66.5775 128.171L63.9702 128.86H63.884C63.7978 128.386 63.5824 128.027 63.2376 127.783C62.9072 127.538 62.5122 127.416 62.0525 127.416C61.6071 127.416 61.2552 127.517 60.9966 127.718C60.738 127.919 60.6088 128.163 60.6088 128.451C60.6088 128.695 60.7021 128.896 60.8889 129.054C61.0756 129.198 61.3701 129.32 61.7723 129.42L63.4531 129.808C64.157 129.966 64.7459 130.16 65.22 130.39C65.6941 130.62 66.0747 130.965 66.362 131.424C66.6637 131.884 66.8145 132.495 66.8145 133.256C66.8145 133.888 66.6206 134.484 66.2327 135.044C65.8449 135.59 65.3062 136.028 64.6167 136.359C63.9271 136.675 63.1514 136.833 62.2895 136.833Z" fill="currentColor"/>
<path d="M45.5604 131.015C45.5604 129.909 45.7975 128.918 46.2715 128.041C46.7456 127.151 47.3992 126.461 48.2324 125.973C49.0799 125.47 50.0352 125.219 51.0982 125.219C52.4198 125.219 53.4829 125.491 54.2873 126.037C55.0918 126.569 55.6664 127.251 56.0112 128.084C56.3559 128.918 56.5283 129.808 56.5283 130.756C56.5283 130.957 56.5139 131.259 56.4852 131.661H48.4694C48.57 132.523 48.8716 133.191 49.3744 133.665C49.8772 134.139 50.5236 134.376 51.3137 134.376C52.5348 134.376 53.3033 133.845 53.6193 132.782L56.4637 133.514C56.1764 134.549 55.5802 135.36 54.6752 135.949C53.7845 136.538 52.6353 136.833 51.2275 136.833C50.1358 136.833 49.1589 136.589 48.297 136.1C47.4495 135.597 46.7815 134.908 46.2931 134.032C45.8046 133.141 45.5604 132.135 45.5604 131.015ZM53.4254 129.593C53.368 128.946 53.1309 128.422 52.7143 128.02C52.3121 127.603 51.7734 127.395 51.0982 127.395C50.4231 127.395 49.87 127.589 49.4391 127.977C49.0081 128.35 48.7136 128.889 48.5556 129.593H53.4254Z" fill="currentColor"/>
<path d="M27.6316 125.434H30.5621V126.77C30.9069 126.296 31.345 125.922 31.8765 125.649C32.4224 125.362 33.0329 125.219 33.7081 125.219C34.4838 125.219 35.1518 125.384 35.712 125.714C36.2867 126.03 36.7248 126.49 37.0265 127.093C37.3856 126.447 37.874 125.973 38.4917 125.671C39.1094 125.369 39.763 125.219 40.4526 125.219C41.1996 125.219 41.8747 125.384 42.4781 125.714C43.0814 126.03 43.5483 126.475 43.8787 127.05C44.2235 127.625 44.3958 128.285 44.3958 129.032V136.617H41.4653V129.937C41.4653 129.119 41.2929 128.544 40.9482 128.214C40.6178 127.883 40.2012 127.718 39.6984 127.718C39.1525 127.718 38.6713 127.941 38.2547 128.386C37.8381 128.817 37.5795 129.384 37.479 130.088V136.617H34.5485V129.937C34.5485 129.119 34.3761 128.544 34.0313 128.214C33.7009 127.883 33.2843 127.718 32.7815 127.718C32.2213 127.718 31.7329 127.948 31.3163 128.408C30.9141 128.867 30.6627 129.435 30.5621 130.11V136.617H27.6316V125.434Z" fill="currentColor"/>
<path d="M20.6328 136.833C19.5266 136.833 18.5354 136.581 17.6591 136.079C16.7829 135.576 16.1005 134.879 15.6121 133.988C15.1237 133.098 14.8795 132.107 14.8795 131.015C14.8795 129.923 15.1237 128.939 15.6121 128.063C16.1005 127.172 16.7829 126.475 17.6591 125.973C18.5354 125.47 19.5266 125.219 20.6328 125.219C21.7245 125.219 22.7085 125.47 23.5848 125.973C24.4611 126.475 25.1434 127.172 25.6319 128.063C26.1346 128.939 26.386 129.923 26.386 131.015C26.386 132.107 26.1346 133.098 25.6319 133.988C25.1434 134.865 24.4611 135.561 23.5848 136.079C22.7085 136.581 21.7245 136.833 20.6328 136.833ZM20.6328 134.312C21.4516 134.312 22.1196 134.003 22.6367 133.385C23.1539 132.767 23.4124 131.977 23.4124 131.015C23.4124 130.052 23.1467 129.262 22.6152 128.645C22.098 128.027 21.4372 127.718 20.6328 127.718C19.7996 127.718 19.1244 128.027 18.6073 128.645C18.1045 129.262 17.8531 130.052 17.8531 131.015C17.8531 131.977 18.1045 132.767 18.6073 133.385C19.1244 134.003 19.7996 134.312 20.6328 134.312Z" fill="currentColor"/>
<path d="M10.5449 129.916H3.88663V136.617H0.783737V121.081H3.88663V127.201H10.5449V121.081H13.6478V136.617H10.5449V129.916Z" fill="currentColor"/>
<path d="M80.5502 107.064H83.4807V108.378C83.8398 107.904 84.2851 107.53 84.8167 107.257C85.3482 106.985 85.9371 106.848 86.5836 106.848C87.3737 106.848 88.0847 107.013 88.7168 107.344C89.3633 107.66 89.8732 108.119 90.2467 108.723C90.6202 109.326 90.807 110.03 90.807 110.834V118.247H87.8765V111.567C87.8765 110.863 87.6969 110.317 87.3378 109.929C86.9786 109.542 86.4758 109.348 85.8294 109.348C85.2548 109.348 84.7448 109.577 84.2995 110.037C83.8685 110.497 83.5956 111.064 83.4807 111.739V118.247H80.5502V107.064Z" fill="currentColor"/>
<path d="M68.3027 112.644C68.3027 111.538 68.5397 110.547 69.0138 109.671C69.4878 108.78 70.1414 108.091 70.9746 107.602C71.8222 107.099 72.7775 106.848 73.8405 106.848C75.1621 106.848 76.2251 107.121 77.0296 107.667C77.834 108.198 78.4086 108.881 78.7534 109.714C79.0982 110.547 79.2705 111.438 79.2705 112.386C79.2705 112.587 79.2562 112.889 79.2274 113.291H71.2116C71.3122 114.153 71.6139 114.821 72.1166 115.295C72.6194 115.769 73.2659 116.006 74.056 116.006C75.277 116.006 76.0455 115.474 76.3616 114.411L79.2059 115.144C78.9186 116.178 78.3224 116.99 77.4174 117.579C76.5268 118.168 75.3776 118.462 73.9698 118.462C72.878 118.462 71.9012 118.218 71.0393 117.73C70.1917 117.227 69.5237 116.537 69.0353 115.661C68.5469 114.771 68.3027 113.765 68.3027 112.644ZM76.1676 111.222C76.1102 110.576 75.8732 110.052 75.4566 109.649C75.0543 109.233 74.5156 109.024 73.8405 109.024C73.1653 109.024 72.6122 109.218 72.1813 109.606C71.7503 109.98 71.4558 110.518 71.2978 111.222H76.1676Z" fill="currentColor"/>
<path d="M58.4044 108.637L57.8441 107.151V107.064H60.7531L60.7746 107.151L61.2487 108.637L63.2526 114.865L65.2135 108.637L65.666 107.172L65.7091 107.064H68.6396V107.172L68.0794 108.637L64.6101 118.248H61.8951L58.4044 108.637Z" fill="currentColor"/>
<path d="M51.4487 118.462C50.7017 118.462 50.0265 118.319 49.4232 118.031C48.8198 117.744 48.3458 117.356 48.001 116.868C47.6706 116.365 47.5054 115.805 47.5054 115.187C47.5054 114.196 47.8502 113.406 48.5397 112.817C49.2292 112.214 50.2132 111.826 51.4918 111.653L54.5085 111.244V110.834C54.5085 110.289 54.3289 109.858 53.9698 109.542C53.6106 109.226 53.1438 109.068 52.5692 109.068C51.9371 109.068 51.4271 109.226 51.0393 109.542C50.6514 109.858 50.3928 110.289 50.2635 110.834L47.6131 110.188C47.9004 109.226 48.4607 108.428 49.2939 107.796C50.1414 107.164 51.2332 106.848 52.5692 106.848C54.0344 106.848 55.2052 107.236 56.0815 108.012C56.9721 108.773 57.4174 109.807 57.4174 111.115V118.247H54.4869V117.04C53.783 117.988 52.7703 118.462 51.4487 118.462ZM50.479 115.058C50.479 115.417 50.6155 115.719 50.8884 115.963C51.1757 116.207 51.542 116.329 51.9874 116.329C52.5907 116.329 53.1007 116.157 53.5173 115.812C53.9482 115.467 54.2714 115.022 54.4869 114.476V113.226L51.9874 113.657C50.9818 113.858 50.479 114.325 50.479 115.058Z" fill="currentColor"/>
<path d="M35.6498 102.496H38.5803V108.378C38.9395 107.904 39.3848 107.531 39.9163 107.258C40.4478 106.985 41.0368 106.848 41.6832 106.848C42.4733 106.848 43.1844 107.013 43.8165 107.344C44.4629 107.66 44.9729 108.12 45.3464 108.723C45.7199 109.326 45.9066 110.03 45.9066 110.835V118.247H42.9761V111.567C42.9761 110.863 42.7965 110.317 42.4374 109.93C42.0783 109.542 41.5755 109.348 40.9291 109.348C40.3544 109.348 39.8445 109.578 39.3992 110.037C38.9682 110.497 38.6953 111.064 38.5803 111.74V118.247H35.6498V102.496Z" fill="currentColor"/>
<path d="M27.5054 107.064H30.4359V108.68C30.7663 108.105 31.2189 107.66 31.7935 107.344C32.3681 107.013 32.957 106.848 33.5604 106.848C33.9195 106.848 34.1565 106.862 34.2715 106.891V109.692C33.8692 109.635 33.5963 109.606 33.4526 109.606C32.6195 109.606 31.9587 109.843 31.4702 110.317C30.9818 110.791 30.6371 111.38 30.4359 112.084V118.247H27.5054V107.064Z" fill="currentColor"/>
<path d="M22.5858 118.248V107.064H25.5163V118.248H22.5858ZM24.0295 105.771C23.5411 105.771 23.1245 105.599 22.7798 105.254C22.4493 104.91 22.2841 104.493 22.2841 104.005C22.2841 103.516 22.4493 103.1 22.7798 102.755C23.1245 102.41 23.5411 102.238 24.0295 102.238C24.5467 102.238 24.9776 102.41 25.3224 102.755C25.6672 103.1 25.8395 103.516 25.8395 104.005C25.8395 104.493 25.6672 104.91 25.3224 105.254C24.9776 105.599 24.5467 105.771 24.0295 105.771Z" fill="currentColor"/>
<path d="M14.9555 118.462C14.2086 118.462 13.5334 118.319 12.93 118.031C12.3267 117.744 11.8527 117.356 11.5079 116.868C11.1775 116.365 11.0123 115.805 11.0123 115.187C11.0123 114.196 11.357 113.406 12.0466 112.817C12.7361 112.214 13.7201 111.826 14.9986 111.653L18.0153 111.244V110.834C18.0153 110.289 17.8358 109.858 17.4766 109.542C17.1175 109.226 16.6506 109.068 16.076 109.068C15.444 109.068 14.934 109.226 14.5461 109.542C14.1583 109.858 13.8997 110.289 13.7704 110.834L11.12 110.188C11.4073 109.226 11.9676 108.428 12.8008 107.796C13.6483 107.164 14.7401 106.848 16.076 106.848C17.5413 106.848 18.7121 107.236 19.5883 108.012C20.479 108.773 20.9243 109.807 20.9243 111.115V118.247H17.9938V117.04C17.2899 117.988 16.2771 118.462 14.9555 118.462ZM13.9859 115.058C13.9859 115.417 14.1224 115.719 14.3953 115.963C14.6826 116.207 15.0489 116.329 15.4942 116.329C16.0976 116.329 16.6075 116.157 17.0241 115.812C17.4551 115.467 17.7783 115.022 17.9938 114.476V113.226L15.4942 113.657C14.4887 113.858 13.9859 114.325 13.9859 115.058Z" fill="currentColor"/>
<path d="M0.783737 102.712H11.4499V105.427H3.88663V108.745H9.96313V111.46H3.88663V118.248H0.783737V102.712Z" fill="currentColor"/>
<g clip-path="url(#clip0_18_819)">
<path d="M88.5562 0.782227C89.799 0.782227 90.8069 1.78947 90.8072 3.03223V88.5557C90.807 89.7985 89.7991 90.8057 88.5562 90.8057H3.03374C1.7909 90.8056 0.783866 89.7985 0.783737 88.5557V68.4795C6.69454 68.4794 12.5475 67.3156 18.0083 65.0537C23.4694 62.7916 28.4321 59.4756 32.6119 55.2959C36.7914 51.1163 40.1067 46.1543 42.3687 40.6934C44.6308 35.2323 45.7955 29.3788 45.7955 23.4678H0.783737V3.03223C0.78399 1.78951 1.79098 0.782297 3.03374 0.782227H88.5562Z" fill="currentColor"/>
</g>
<defs>
<clipPath id="clip0_18_819">
<rect x="0.78421" y="0.961548" width="90.0239" height="90.0239" rx="2.2506" fill="white"/>
</clipPath>
</defs>
</svg>
