<svg xmlns="http://www.w3.org/2000/svg" viewBox="0 0 1126.8 340.6"><defs><style>.cls-1{fill:currentColor;}</style></defs><g id="Layer_2" data-name="Layer 2"><g id="Layer_1-2" data-name="Layer 1"><path class="cls-1" d="M632.4,159.6a189.65,189.65,0,0,0,1.2-21.2C633.6,53.7,573,0,482.8,0,372.9,0,299.1,72.6,281,159.6h32a212.28,212.28,0,0,0-4.4,42.3c0,84.2,61,138.7,152,138.7,117.9,0,194.1-85.2,203.7-181ZM475.9,244.4c-38.5,0-62.6-23.6-62.6-59.7a77.52,77.52,0,0,1,4-25.1h-32c9.2-35.3,39.3-63.8,82.6-63.8,37.7,0,61.8,23.3,61.8,59.4a16.41,16.41,0,0,1-.4,4.4h32C559.7,201.7,527.6,244.4,475.9,244.4Z"/><path class="cls-1" d="M211.7,159.7h-.3c44.2-8.2,67.7-45.7,67.7-81.4,0-45.4-38.1-71.8-94.3-71.8H39.6L0,159.7H32.4L.3,333.7H155.1c81.8,0,131.9-45.3,131.9-108.6C287,182.7,258,159.7,211.7,159.7ZM129,78.6h27.3c15.6,0,24,8.9,24,21.7.1,15.7-9.5,30.9-33.6,30.9H119.4Zm18.9,181.3H117L128.2,199h31.3c17.2,0,27.7,9.6,27.7,26.1S177.6,259.9,147.9,259.9Z"/><polygon class="cls-1" points="807.5 159.7 775.6 159.7 855 6.5 703.2 6.5 664.3 159.7 695.9 159.7 651.5 333.7 891.3 333.7 913.8 225.4 767.9 242.4 807.5 159.7"/><polygon class="cls-1" points="1111.6 90.3 1126.8 6.5 880.7 6.5 865.5 90.3 936.2 90.3 923.3 159.7 955.4 159.7 923 333.7 1028 333.7 1060.1 159.7 1028 159.7 1040.9 90.3 1111.6 90.3"/><path class="cls-1" d="M632.4,159.6a189.65,189.65,0,0,0,1.2-21.2C633.6,53.7,573,0,482.8,0,372.9,0,299.1,72.6,281,159.6h32a212.28,212.28,0,0,0-4.4,42.3c0,84.2,61,138.7,152,138.7,117.9,0,194.1-85.2,203.7-181ZM475.9,244.4c-38.5,0-62.6-23.6-62.6-59.7a77.52,77.52,0,0,1,4-25.1h-32c9.2-35.3,39.3-63.8,82.6-63.8,37.7,0,61.8,23.3,61.8,59.4a16.41,16.41,0,0,1-.4,4.4h32C559.7,201.7,527.6,244.4,475.9,244.4Z"/><path class="cls-1" d="M211.7,159.7h-.3c44.2-8.2,67.7-45.7,67.7-81.4,0-45.4-38.1-71.8-94.3-71.8H39.6L0,159.7H32.4L.3,333.7H155.1c81.8,0,131.9-45.3,131.9-108.6C287,182.7,258,159.7,211.7,159.7ZM129,78.6h27.3c15.6,0,24,8.9,24,21.7.1,15.7-9.5,30.9-33.6,30.9H119.4Zm18.9,181.3H117L128.2,199h31.3c17.2,0,27.7,9.6,27.7,26.1S177.6,259.9,147.9,259.9Z"/><polygon class="cls-1" points="807.5 159.7 775.6 159.7 855 6.5 703.2 6.5 664.3 159.7 695.9 159.7 651.5 333.7 891.3 333.7 913.8 225.4 767.9 242.4 807.5 159.7"/><polygon class="cls-1" points="1111.6 90.3 1126.8 6.5 880.7 6.5 865.5 90.3 936.2 90.3 923.3 159.7 955.4 159.7 923 333.7 1028 333.7 1060.1 159.7 1028 159.7 1040.9 90.3 1111.6 90.3"/></g></g></svg>