<svg viewBox="0 0 23 22" fill="none" xmlns="http://www.w3.org/2000/svg" preserveAspectRatio="xMidYMid meet">
  <path d="M10.8919 0.968665C11.2494 0.193793 12.3506 0.193793 12.7081 0.968665L15.1769 6.32111C15.3226 6.63691 15.6219 6.85436 15.9672 6.89531L21.8206 7.58932C22.668 7.68979 23.0083 8.73718 22.3818 9.31655L18.0543 13.3186C17.7989 13.5547 17.6846 13.9065 17.7524 14.2476L18.9011 20.029C19.0674 20.866 18.1765 21.5133 17.4319 21.0965L12.2884 18.2174C11.985 18.0475 11.615 18.0475 11.3116 18.2174L6.16813 21.0965C5.42352 21.5133 4.53256 20.866 4.69887 20.029L5.84762 14.2476C5.9154 13.9065 5.80108 13.5547 5.54574 13.3186L1.21818 9.31655C0.591683 8.73718 0.931999 7.68979 1.77939 7.58932L7.63278 6.89531C7.97815 6.85436 8.27743 6.63691 8.4231 6.32111L10.8919 0.968665Z" fill="currentColor"/>
</svg>
